# xmcd CD database file
#
# Track frame offsets:
#	150
#	16472
#	28930
#	45935
#	62260
#	84102
#	104177
#	122697
#	142442
#	163187
#	178747
#	197600
#	218870
#	248862
#
# Disc length: 3524 seconds
#
# Revision: 0
# Processed by: cddbd v1.5.1PL0 Copyright (c) Steve Scherf et al.
# Submitted via: CDex 1.60beta1
#
DISCID=c70dc20e
DTITLE=中森明菜 - 中森明菜コレクション 1982〜1991 [CD15)
DYEAR=1996
DGENRE=JPop
TTITLE0=1/2の神話
TTITLE1=サザン・ウインド
TTITLE2=北ウイング
TTITLE3=Blue On Pink
TTITLE4=LIAR
TTITLE5=難破船
TTITLE6=二人静 -「天河伝説殺人事件」より
TTITLE7=DESIRE -情熱-
TTITLE8=LA BOHEME
TTITLE9=十戒（1984）
TTITLE10=飾りじゃないのよ涙は
TTITLE11=TATTOO
TTITLE12=SINGER
TTITLE13=Close Your Eyes
EXTD=YEAR: 1996
EXTT0=
EXTT1=
EXTT2=
EXTT3=
EXTT4=
EXTT5=
EXTT6=
EXTT7=
EXTT8=
EXTT9=
EXTT10=
EXTT11=
EXTT12=
EXTT13=
PLAYORDER=
